<svg width="40" height="40" viewBox="0 0 40 40" fill="none" xmlns="http://www.w3.org/2000/svg">
<circle cx="20" cy="20" r="20" fill="#FF1E65"/>
<path d="M17.6674 23.7794V24.5254C17.6674 24.8174 17.61 25.1065 17.4982 25.3762C17.3865 25.6459 17.2227 25.891 17.0162 26.0974L16.5562 26.5575H23.2237L22.7636 26.0974C22.5571 25.891 22.3933 25.6459 22.2816 25.3762C22.1699 25.1065 22.1124 24.8174 22.1124 24.5254V23.7794M26.5574 14.8894V22.1125C26.5574 22.5546 26.3818 22.9786 26.0692 23.2912C25.7566 23.6038 25.3326 23.7794 24.8905 23.7794H14.8893C14.4472 23.7794 14.0232 23.6038 13.7106 23.2912C13.398 22.9786 13.2224 22.5546 13.2224 22.1125V14.8894M26.5574 14.8894C26.5574 14.4473 26.3818 14.0233 26.0692 13.7107C25.7566 13.3981 25.3326 13.2225 24.8905 13.2225H14.8893C14.4472 13.2225 14.0232 13.3981 13.7106 13.7107C13.398 14.0233 13.2224 14.4473 13.2224 14.8894M26.5574 14.8894V19.89C26.5574 20.3321 26.3818 20.7561 26.0692 21.0687C25.7566 21.3813 25.3326 21.5569 24.8905 21.5569H14.8893C14.4472 21.5569 14.0232 21.3813 13.7106 21.0687C13.398 20.7561 13.2224 20.3321 13.2224 19.89V14.8894" stroke="white" stroke-linecap="round" stroke-linejoin="round"/>
</svg>
