<svg width="40" height="40" viewBox="0 0 40 40" fill="none" xmlns="http://www.w3.org/2000/svg">
<circle cx="20" cy="20" r="20" fill="#FF1E65" fill-opacity="0.06"/>
<path d="M22.1164 23.7649C23.4965 23.6015 24.8525 23.2758 26.1564 22.7945C25.0522 21.5714 24.4421 19.9815 24.4445 18.3338V17.8152V17.7782C24.4445 16.5995 23.9762 15.469 23.1428 14.6355C22.3093 13.802 21.1788 13.3338 20.0001 13.3338C18.8213 13.3338 17.6909 13.802 16.8574 14.6355C16.0239 15.469 15.5556 16.5995 15.5556 17.7782V18.3338C15.5578 19.9816 14.9475 21.5715 13.843 22.7945C15.1267 23.2686 16.4801 23.5982 17.8838 23.7649M22.1164 23.7649C20.7104 23.9316 19.2897 23.9316 17.8838 23.7649M22.1164 23.7649C22.2231 24.0981 22.2496 24.4518 22.1938 24.7973C22.138 25.1427 22.0014 25.4701 21.7952 25.7527C21.5889 26.0354 21.3188 26.2653 21.0069 26.4238C20.6949 26.5824 20.35 26.665 20.0001 26.665C19.6501 26.665 19.3052 26.5824 18.9932 26.4238C18.6813 26.2653 18.4112 26.0354 18.205 25.7527C17.9987 25.4701 17.8621 25.1427 17.8063 24.7973C17.7505 24.4518 17.777 24.0981 17.8838 23.7649" stroke="#FF1E65" stroke-linecap="round" stroke-linejoin="round"/>
</svg>
